# xmcd CD database file
#
# Track frame offsets:
#	150
#	28631
#	63984
#	93973
#	126719
#	149730
#	183163
#	217629
#	254176
#
# Disc length: 3790 seconds
#
# Revision: 0
# Processed by: cddbd v1.5.2PL0 Copyright (c) Steve Scherf et al.
# Submitted via: CDex 1.70beta2
#
DISCID=880ecc09
DTITLE=Kühntett - The Contemporary Jazz Movement
DYEAR=2006
DGENRE=Jazz
TTITLE0=Zianoism
TTITLE1=Gedankenflut
TTITLE2=Dort ist der Weg
TTITLE3=Zartbitter
TTITLE4=Bassophil
TTITLE5=For Pat
TTITLE6=Die Milchstraße
TTITLE7=Secret Love
TTITLE8=To be us
EXTD=YEAR: 2006
EXTT0=
EXTT1=
EXTT2=
EXTT3=
EXTT4=
EXTT5=
EXTT6=
EXTT7=
EXTT8=
PLAYORDER=
